<mxfile host="app.diagrams.net" modified="2024-03-31T10:56:10.980Z" agent="Mozilla/5.0 (X11; Linux x86_64) AppleWebKit/537.36 (KHTML, like Gecko) Chrome/91.0.4472.27 Safari/537.36" etag="FnLxnVDMCq-ifZ-pfAbC" compressed="false" version="24.2.1" type="device">
  <diagram id="1IEk_Nb3fTFsxIXIZDjR" name="Page-1">
    <mxGraphModel dx="1750" dy="875" grid="1" gridSize="10" guides="1" tooltips="1" connect="1" arrows="1" fold="1" page="0" pageScale="1" pageWidth="850" pageHeight="1100" math="1" shadow="0">
      <root>
        <mxCell id="0" />
        <mxCell id="1" parent="0" />
        <mxCell id="ShThiTPjBM2Tm-KsTzZ0-3" value="Monitoring" style="shape=folder;fontStyle=1;spacingTop=10;tabWidth=40;tabHeight=14;tabPosition=left;html=1;verticalAlign=top;align=left;fillColor=#d5e8d4;strokeColor=#82b366;fontSize=9;" vertex="1" parent="1">
          <mxGeometry x="491" y="-90" width="460" height="180" as="geometry" />
        </mxCell>
        <mxCell id="m_n6-F-YFGLFjy7Y0JU2-11" value="" style="rounded=1;whiteSpace=wrap;html=1;fontSize=9;fillColor=#f5f5f5;fontColor=#333333;strokeColor=#666666;" parent="1" vertex="1">
          <mxGeometry x="-400" y="80" width="320" height="80" as="geometry" />
        </mxCell>
        <mxCell id="oWM7RPTnSrJb3YP9Nrb4-1" value="&amp;nbsp;(Mock) PhysicalTwin" style="shape=folder;fontStyle=1;spacingTop=10;tabWidth=40;tabHeight=14;tabPosition=left;html=1;verticalAlign=top;align=left;fillColor=#f8cecc;strokeColor=#b85450;fontSize=9;" parent="1" vertex="1">
          <mxGeometry x="-400" y="-90" width="410" height="160" as="geometry" />
        </mxCell>
        <mxCell id="oWM7RPTnSrJb3YP9Nrb4-2" value="DigitalTwin" style="shape=folder;fontStyle=1;spacingTop=10;tabWidth=40;tabHeight=14;tabPosition=left;html=1;verticalAlign=top;align=left;fillColor=#d5e8d4;strokeColor=#82b366;fontSize=9;" parent="1" vertex="1">
          <mxGeometry x="20" y="-90" width="460" height="180" as="geometry" />
        </mxCell>
        <mxCell id="oWM7RPTnSrJb3YP9Nrb4-9" value="" style="rounded=0;orthogonalLoop=1;jettySize=auto;html=1;endArrow=none;endFill=0;sketch=0;sourcePerimeterSpacing=0;targetPerimeterSpacing=0;exitX=1;exitY=0.5;exitDx=0;exitDy=0;fontSize=9;" parent="1" source="OyYLRLAsNLPhuQtMTE0q-3" target="oWM7RPTnSrJb3YP9Nrb4-11" edge="1">
          <mxGeometry relative="1" as="geometry">
            <mxPoint x="90" y="85" as="sourcePoint" />
          </mxGeometry>
        </mxCell>
        <mxCell id="oWM7RPTnSrJb3YP9Nrb4-10" value="" style="rounded=0;orthogonalLoop=1;jettySize=auto;html=1;endArrow=halfCircle;endFill=0;entryX=0.5;entryY=0.5;endSize=6;strokeWidth=1;sketch=0;fontSize=9;" parent="1" source="OyYLRLAsNLPhuQtMTE0q-1" target="oWM7RPTnSrJb3YP9Nrb4-11" edge="1">
          <mxGeometry relative="1" as="geometry">
            <mxPoint x="-160" y="10" as="sourcePoint" />
          </mxGeometry>
        </mxCell>
        <mxCell id="oWM7RPTnSrJb3YP9Nrb4-11" value="" style="ellipse;whiteSpace=wrap;html=1;align=center;aspect=fixed;resizable=0;points=[];outlineConnect=0;sketch=0;fontSize=9;" parent="1" vertex="1">
          <mxGeometry x="-200" width="10" height="10" as="geometry" />
        </mxCell>
        <mxCell id="oWM7RPTnSrJb3YP9Nrb4-12" value="low_level_driver_server" style="text;html=1;strokeColor=none;fillColor=none;align=center;verticalAlign=middle;whiteSpace=wrap;rounded=0;fontSize=9;" parent="1" vertex="1">
          <mxGeometry x="-221" y="42.5" width="135" height="20" as="geometry" />
        </mxCell>
        <mxCell id="oWM7RPTnSrJb3YP9Nrb4-13" value="&amp;lt;&amp;lt;MessageExchange&amp;gt;&amp;gt;&lt;br style=&quot;font-size: 9px;&quot;&gt;&lt;b style=&quot;font-size: 9px;&quot;&gt;RabbitMQ&lt;/b&gt;" style="html=1;dropTarget=0;fontSize=9;" parent="1" vertex="1">
          <mxGeometry x="140" y="125" width="190" height="35" as="geometry" />
        </mxCell>
        <mxCell id="oWM7RPTnSrJb3YP9Nrb4-14" value="" style="shape=module;jettyWidth=8;jettyHeight=4;fontSize=9;" parent="oWM7RPTnSrJb3YP9Nrb4-13" vertex="1">
          <mxGeometry x="1" width="20" height="20" relative="1" as="geometry">
            <mxPoint x="-27" y="7" as="offset" />
          </mxGeometry>
        </mxCell>
        <mxCell id="oWM7RPTnSrJb3YP9Nrb4-17" value="«TimeSeriesDB»&lt;br style=&quot;font-size: 9px;&quot;&gt;&lt;b style=&quot;font-size: 9px;&quot;&gt;InfluxDB&lt;/b&gt;" style="html=1;dropTarget=0;fontSize=9;" parent="1" vertex="1">
          <mxGeometry x="220" y="-136" width="162.5" height="36" as="geometry" />
        </mxCell>
        <mxCell id="oWM7RPTnSrJb3YP9Nrb4-18" value="" style="shape=module;jettyWidth=8;jettyHeight=4;fontSize=9;" parent="oWM7RPTnSrJb3YP9Nrb4-17" vertex="1">
          <mxGeometry x="1" width="20" height="20" relative="1" as="geometry">
            <mxPoint x="-27" y="7" as="offset" />
          </mxGeometry>
        </mxCell>
        <mxCell id="oWM7RPTnSrJb3YP9Nrb4-21" value="" style="shape=providedRequiredInterface;html=1;verticalLabelPosition=bottom;sketch=0;rotation=-92.4;fontSize=9;" parent="1" vertex="1">
          <mxGeometry x="225" y="95" width="20" height="20" as="geometry" />
        </mxCell>
        <mxCell id="oWM7RPTnSrJb3YP9Nrb4-22" value="" style="endArrow=none;html=1;rounded=0;entryX=0;entryY=0.5;entryDx=0;entryDy=0;entryPerimeter=0;exitX=0.5;exitY=0;exitDx=0;exitDy=0;fontSize=9;" parent="1" target="oWM7RPTnSrJb3YP9Nrb4-21" edge="1" source="oWM7RPTnSrJb3YP9Nrb4-13">
          <mxGeometry width="50" height="50" relative="1" as="geometry">
            <mxPoint x="295" y="114" as="sourcePoint" />
            <mxPoint x="70" y="-37" as="targetPoint" />
          </mxGeometry>
        </mxCell>
        <mxCell id="oWM7RPTnSrJb3YP9Nrb4-23" value="" style="shape=providedRequiredInterface;html=1;verticalLabelPosition=bottom;sketch=0;rotation=90;fontSize=9;" parent="1" vertex="1">
          <mxGeometry x="291.25" y="-57" width="20" height="20" as="geometry" />
        </mxCell>
        <mxCell id="oWM7RPTnSrJb3YP9Nrb4-24" value="" style="endArrow=none;html=1;rounded=0;entryX=0;entryY=0.5;entryDx=0;entryDy=0;entryPerimeter=0;fontSize=9;" parent="1" source="oWM7RPTnSrJb3YP9Nrb4-17" target="oWM7RPTnSrJb3YP9Nrb4-23" edge="1">
          <mxGeometry width="50" height="50" relative="1" as="geometry">
            <mxPoint x="20" y="80" as="sourcePoint" />
            <mxPoint x="70" y="30" as="targetPoint" />
          </mxGeometry>
        </mxCell>
        <mxCell id="oWM7RPTnSrJb3YP9Nrb4-28" value="" style="endArrow=none;html=1;rounded=0;entryX=0.5;entryY=0;entryDx=0;entryDy=0;exitX=1;exitY=0.5;exitDx=0;exitDy=0;exitPerimeter=0;fontSize=9;" parent="1" source="oWM7RPTnSrJb3YP9Nrb4-23" target="OyYLRLAsNLPhuQtMTE0q-5" edge="1">
          <mxGeometry width="50" height="50" relative="1" as="geometry">
            <mxPoint x="191.25" y="-77" as="sourcePoint" />
            <mxPoint x="191.25" y="-57" as="targetPoint" />
          </mxGeometry>
        </mxCell>
        <mxCell id="oWM7RPTnSrJb3YP9Nrb4-29" value="" style="endArrow=none;html=1;rounded=0;entryX=1;entryY=0.5;entryDx=0;entryDy=0;exitX=0.5;exitY=1;exitDx=0;exitDy=0;entryPerimeter=0;fontSize=9;" parent="1" source="OyYLRLAsNLPhuQtMTE0q-5" target="oWM7RPTnSrJb3YP9Nrb4-21" edge="1">
          <mxGeometry width="50" height="50" relative="1" as="geometry">
            <mxPoint x="191.25" y="-37" as="sourcePoint" />
            <mxPoint x="155" y="-7" as="targetPoint" />
          </mxGeometry>
        </mxCell>
        <mxCell id="oWM7RPTnSrJb3YP9Nrb4-33" value="" style="endArrow=none;html=1;rounded=0;entryX=1;entryY=0.5;entryDx=0;entryDy=0;entryPerimeter=0;exitX=0.5;exitY=1;exitDx=0;exitDy=0;fontSize=9;" parent="1" source="OyYLRLAsNLPhuQtMTE0q-7" target="oWM7RPTnSrJb3YP9Nrb4-21" edge="1">
          <mxGeometry width="50" height="50" relative="1" as="geometry">
            <mxPoint x="262.4974567230281" y="38" as="sourcePoint" />
            <mxPoint x="105" y="-12" as="targetPoint" />
          </mxGeometry>
        </mxCell>
        <mxCell id="oWM7RPTnSrJb3YP9Nrb4-34" value="" style="endArrow=none;html=1;rounded=0;entryX=1;entryY=0.5;entryDx=0;entryDy=0;entryPerimeter=0;exitX=0.5;exitY=0;exitDx=0;exitDy=0;fontSize=9;" parent="1" source="OyYLRLAsNLPhuQtMTE0q-7" target="oWM7RPTnSrJb3YP9Nrb4-23" edge="1">
          <mxGeometry width="50" height="50" relative="1" as="geometry">
            <mxPoint x="262.7631578947369" y="-22" as="sourcePoint" />
            <mxPoint x="190.83124346270802" y="103.0087716990115" as="targetPoint" />
          </mxGeometry>
        </mxCell>
        <mxCell id="oWM7RPTnSrJb3YP9Nrb4-37" value="" style="endArrow=none;html=1;rounded=0;entryX=1;entryY=0.5;entryDx=0;entryDy=0;entryPerimeter=0;exitX=0.5;exitY=1;exitDx=0;exitDy=0;fontSize=9;" parent="1" source="OyYLRLAsNLPhuQtMTE0q-11" target="oWM7RPTnSrJb3YP9Nrb4-21" edge="1">
          <mxGeometry width="50" height="50" relative="1" as="geometry">
            <mxPoint x="352.5" y="38" as="sourcePoint" />
            <mxPoint x="190.83124346270802" y="103.0087716990115" as="targetPoint" />
          </mxGeometry>
        </mxCell>
        <mxCell id="oWM7RPTnSrJb3YP9Nrb4-38" value="" style="endArrow=none;html=1;rounded=0;entryX=0.5;entryY=0;entryDx=0;entryDy=0;exitX=1;exitY=0.5;exitDx=0;exitDy=0;exitPerimeter=0;fontSize=9;" parent="1" source="oWM7RPTnSrJb3YP9Nrb4-23" target="OyYLRLAsNLPhuQtMTE0q-11" edge="1">
          <mxGeometry width="50" height="50" relative="1" as="geometry">
            <mxPoint x="330" y="45.063740085160816" as="sourcePoint" />
            <mxPoint x="352.5" y="-22" as="targetPoint" />
          </mxGeometry>
        </mxCell>
        <mxCell id="oWM7RPTnSrJb3YP9Nrb4-44" value="" style="endArrow=none;html=1;rounded=0;entryX=1;entryY=0.5;entryDx=0;entryDy=0;exitX=0.5;exitY=1;exitDx=0;exitDy=0;entryPerimeter=0;fontSize=9;" parent="1" source="OyYLRLAsNLPhuQtMTE0q-1" target="oWM7RPTnSrJb3YP9Nrb4-21" edge="1">
          <mxGeometry width="50" height="50" relative="1" as="geometry">
            <mxPoint x="-75" y="70" as="sourcePoint" />
            <mxPoint x="195" y="40" as="targetPoint" />
          </mxGeometry>
        </mxCell>
        <mxCell id="OyYLRLAsNLPhuQtMTE0q-1" value="&lt;p style=&quot;margin: 6px 0px 0px; text-align: center; font-size: 9px;&quot;&gt;&lt;font style=&quot;font-size: 9px;&quot;&gt;&lt;b style=&quot;font-size: 9px;&quot;&gt;Controller&lt;br style=&quot;font-size: 9px;&quot;&gt;&lt;/b&gt;&lt;/font&gt;&lt;/p&gt;&lt;hr style=&quot;font-size: 9px;&quot;&gt;&lt;p style=&quot;margin: 0px 0px 0px 8px; font-size: 9px;&quot;&gt;&lt;br style=&quot;font-size: 9px;&quot;&gt;&lt;/p&gt;" style="align=left;overflow=fill;html=1;dropTarget=0;fontSize=9;" parent="1" vertex="1">
          <mxGeometry x="-160" y="-26.25" width="160" height="62.5" as="geometry" />
        </mxCell>
        <mxCell id="OyYLRLAsNLPhuQtMTE0q-2" value="" style="shape=component;jettyWidth=8;jettyHeight=4;fontSize=9;" parent="OyYLRLAsNLPhuQtMTE0q-1" vertex="1">
          <mxGeometry x="1" width="20" height="20" relative="1" as="geometry">
            <mxPoint x="-24" y="4" as="offset" />
          </mxGeometry>
        </mxCell>
        <mxCell id="OyYLRLAsNLPhuQtMTE0q-3" value="&lt;p style=&quot;margin: 6px 0px 0px; text-align: center; font-size: 9px;&quot;&gt;&lt;font style=&quot;font-size: 9px;&quot;&gt;&lt;b style=&quot;font-size: 9px;&quot;&gt;Plant&lt;br style=&quot;font-size: 9px;&quot;&gt;&lt;/b&gt;&lt;/font&gt;&lt;/p&gt;&lt;hr style=&quot;font-size: 9px;&quot;&gt;&lt;p style=&quot;margin: 0px 0px 0px 8px; font-size: 9px;&quot;&gt;&lt;font style=&quot;font-size: 9px;&quot;&gt;&lt;font style=&quot;font-size: 9px;&quot;&gt;&lt;b style=&quot;font-size: 9px;&quot;&gt;+ T: Int&lt;span style=&quot;white-space: pre; font-size: 9px;&quot;&gt; &lt;/span&gt;# Air temperature&lt;br style=&quot;font-size: 9px;&quot;&gt;+ heater_on: Bool&amp;nbsp;&lt;/b&gt;&lt;/font&gt;&lt;/font&gt;&lt;/p&gt;&lt;p style=&quot;margin: 0px 0px 0px 8px; font-size: 9px;&quot;&gt;&lt;font style=&quot;font-size: 9px;&quot;&gt;&lt;b style=&quot;font-size: 9px;&quot;&gt;# Status of heater&lt;/b&gt;&lt;/font&gt;&lt;/p&gt;" style="align=left;overflow=fill;html=1;dropTarget=0;fontSize=9;" parent="1" vertex="1">
          <mxGeometry x="-392.5" y="-42.5" width="170" height="95" as="geometry" />
        </mxCell>
        <mxCell id="OyYLRLAsNLPhuQtMTE0q-4" value="" style="shape=component;jettyWidth=8;jettyHeight=4;fontSize=9;" parent="OyYLRLAsNLPhuQtMTE0q-3" vertex="1">
          <mxGeometry x="1" width="20" height="20" relative="1" as="geometry">
            <mxPoint x="-24" y="4" as="offset" />
          </mxGeometry>
        </mxCell>
        <mxCell id="OyYLRLAsNLPhuQtMTE0q-5" value="&lt;p style=&quot;margin: 6px 0px 0px; text-align: center; font-size: 9px;&quot;&gt;&lt;font style=&quot;font-size: 9px;&quot;&gt;&lt;b style=&quot;font-size: 9px;&quot;&gt;KalmanFilter&lt;br style=&quot;font-size: 9px;&quot;&gt;&lt;/b&gt;&lt;/font&gt;&lt;/p&gt;&lt;hr style=&quot;font-size: 9px;&quot;&gt;&lt;p style=&quot;margin: 0px 0px 0px 8px; font-size: 9px;&quot;&gt;&lt;font style=&quot;font-size: 9px;&quot;&gt;&lt;b style=&quot;font-size: 9px;&quot;&gt;Estimates full Plant state&amp;nbsp;&lt;/b&gt;&lt;/font&gt;&lt;/p&gt;&lt;p style=&quot;margin: 0px 0px 0px 8px; font-size: 9px;&quot;&gt;&lt;font style=&quot;font-size: 9px;&quot;&gt;&lt;b style=&quot;font-size: 9px;&quot;&gt;(T and T_heater)&lt;/b&gt;&lt;/font&gt;&lt;/p&gt;" style="align=left;overflow=fill;html=1;dropTarget=0;fontSize=9;" parent="1" vertex="1">
          <mxGeometry x="30" y="-19.5" width="140" height="55" as="geometry" />
        </mxCell>
        <mxCell id="OyYLRLAsNLPhuQtMTE0q-6" value="" style="shape=component;jettyWidth=8;jettyHeight=4;fontSize=9;" parent="OyYLRLAsNLPhuQtMTE0q-5" vertex="1">
          <mxGeometry x="1" width="20" height="20" relative="1" as="geometry">
            <mxPoint x="-24" y="4" as="offset" />
          </mxGeometry>
        </mxCell>
        <mxCell id="OyYLRLAsNLPhuQtMTE0q-7" value="&lt;p style=&quot;margin: 6px 0px 0px; text-align: center; font-size: 9px;&quot;&gt;&lt;font style=&quot;font-size: 9px;&quot;&gt;&lt;b style=&quot;font-size: 9px;&quot;&gt;&lt;font style=&quot;font-size: 9px;&quot;&gt;EnergySaver&lt;/font&gt;&lt;br style=&quot;font-size: 9px;&quot;&gt;&lt;/b&gt;&lt;/font&gt;&lt;/p&gt;&lt;hr style=&quot;font-size: 9px;&quot;&gt;&lt;p style=&quot;text-align: center; margin: 0px 0px 0px 8px; font-size: 9px;&quot;&gt;&lt;b style=&quot;font-size: 9px;&quot;&gt;Implements energy&lt;/b&gt;&lt;/p&gt;&lt;p style=&quot;text-align: center; margin: 0px 0px 0px 8px; font-size: 9px;&quot;&gt;&lt;b style=&quot;font-size: 9px;&quot;&gt;saving and anomaly detection&lt;/b&gt;&lt;/p&gt;" style="align=left;overflow=fill;html=1;dropTarget=0;fontSize=9;" parent="1" vertex="1">
          <mxGeometry x="180" y="-19.5" width="140" height="55" as="geometry" />
        </mxCell>
        <mxCell id="OyYLRLAsNLPhuQtMTE0q-8" value="" style="shape=component;jettyWidth=8;jettyHeight=4;fontSize=9;" parent="OyYLRLAsNLPhuQtMTE0q-7" vertex="1">
          <mxGeometry x="1" width="20" height="20" relative="1" as="geometry">
            <mxPoint x="-24" y="4" as="offset" />
          </mxGeometry>
        </mxCell>
        <mxCell id="OyYLRLAsNLPhuQtMTE0q-11" value="&lt;p style=&quot;margin: 6px 0px 0px; text-align: center; font-size: 9px;&quot;&gt;&lt;font style=&quot;font-size: 9px;&quot;&gt;&lt;b style=&quot;font-size: 9px;&quot;&gt;InfluxDataRecorder&lt;br style=&quot;font-size: 9px;&quot;&gt;&lt;/b&gt;&lt;/font&gt;&lt;/p&gt;&lt;hr style=&quot;font-size: 9px;&quot;&gt;&lt;p style=&quot;text-align: justify; margin: 0px 0px 0px 8px; font-size: 9px;&quot;&gt;&lt;font style=&quot;font-size: 9px;&quot;&gt;&lt;b style=&quot;font-size: 9px;&quot;&gt;Convenience service to record&amp;nbsp;&lt;/b&gt;&lt;/font&gt;&lt;/p&gt;&lt;p style=&quot;text-align: justify; margin: 0px 0px 0px 8px; font-size: 9px;&quot;&gt;&lt;font style=&quot;font-size: 9px;&quot;&gt;&lt;b style=&quot;font-size: 9px;&quot;&gt;all state messages into DB&lt;/b&gt;&lt;/font&gt;&lt;/p&gt;" style="align=left;overflow=fill;html=1;dropTarget=0;fontSize=9;" parent="1" vertex="1">
          <mxGeometry x="330" y="-19.5" width="140" height="55" as="geometry" />
        </mxCell>
        <mxCell id="OyYLRLAsNLPhuQtMTE0q-12" value="" style="shape=component;jettyWidth=8;jettyHeight=4;fontSize=9;" parent="OyYLRLAsNLPhuQtMTE0q-11" vertex="1">
          <mxGeometry x="1" width="20" height="20" relative="1" as="geometry">
            <mxPoint x="-24" y="4" as="offset" />
          </mxGeometry>
        </mxCell>
        <mxCell id="m_n6-F-YFGLFjy7Y0JU2-1" value="Legend:" style="text;html=1;strokeColor=none;fillColor=none;align=left;verticalAlign=middle;whiteSpace=wrap;rounded=0;fontStyle=1;spacing=6;fontSize=9;" parent="1" vertex="1">
          <mxGeometry x="-400" y="80" width="80" height="30" as="geometry" />
        </mxCell>
        <mxCell id="m_n6-F-YFGLFjy7Y0JU2-2" value="&lt;p style=&quot;margin: 6px 0px 0px; text-align: center; font-size: 9px;&quot;&gt;&lt;font style=&quot;font-size: 9px;&quot;&gt;&lt;b style=&quot;font-size: 9px;&quot;&gt;Component&lt;br style=&quot;font-size: 9px;&quot;&gt;&lt;/b&gt;&lt;/font&gt;&lt;/p&gt;&lt;hr style=&quot;font-size: 9px;&quot;&gt;&lt;p style=&quot;margin: 0px 0px 0px 8px; font-size: 9px;&quot;&gt;&lt;font style=&quot;font-size: 9px;&quot;&gt;&lt;b style=&quot;font-size: 9px;&quot;&gt;Main variables, or responsibility.&lt;/b&gt;&lt;/font&gt;&lt;/p&gt;" style="align=left;overflow=fill;html=1;dropTarget=0;fontSize=9;" parent="1" vertex="1">
          <mxGeometry x="-377.5" y="110" width="140" height="40" as="geometry" />
        </mxCell>
        <mxCell id="m_n6-F-YFGLFjy7Y0JU2-3" value="" style="shape=component;jettyWidth=8;jettyHeight=4;fontSize=9;" parent="m_n6-F-YFGLFjy7Y0JU2-2" vertex="1">
          <mxGeometry x="1" width="20" height="20" relative="1" as="geometry">
            <mxPoint x="-24" y="4" as="offset" />
          </mxGeometry>
        </mxCell>
        <mxCell id="m_n6-F-YFGLFjy7Y0JU2-4" value="" style="shape=providedRequiredInterface;html=1;verticalLabelPosition=bottom;sketch=0;rotation=0;fontSize=9;" parent="1" vertex="1">
          <mxGeometry x="-163.5" y="120" width="20" height="20" as="geometry" />
        </mxCell>
        <mxCell id="m_n6-F-YFGLFjy7Y0JU2-5" value="&lt;font style=&quot;font-size: 9px;&quot;&gt;&lt;b style=&quot;font-size: 9px;&quot;&gt;interface provided&lt;/b&gt;&lt;/font&gt;" style="text;html=1;strokeColor=none;fillColor=none;align=left;verticalAlign=middle;whiteSpace=wrap;rounded=0;fontStyle=0;fontSize=9;" parent="1" vertex="1">
          <mxGeometry x="-222.5" y="115" width="40" height="30" as="geometry" />
        </mxCell>
        <mxCell id="m_n6-F-YFGLFjy7Y0JU2-6" value="&lt;font style=&quot;font-size: 9px;&quot;&gt;&lt;b style=&quot;font-size: 9px;&quot;&gt;interface required&lt;/b&gt;&lt;/font&gt;" style="text;html=1;strokeColor=none;fillColor=none;align=left;verticalAlign=middle;whiteSpace=wrap;rounded=0;fontStyle=0;fontSize=9;" parent="1" vertex="1">
          <mxGeometry x="-127.5" y="115" width="50" height="30" as="geometry" />
        </mxCell>
        <mxCell id="m_n6-F-YFGLFjy7Y0JU2-8" value="" style="endArrow=none;html=1;rounded=0;fontSize=9;exitX=1;exitY=0.5;exitDx=0;exitDy=0;exitPerimeter=0;" parent="1" source="m_n6-F-YFGLFjy7Y0JU2-4" target="m_n6-F-YFGLFjy7Y0JU2-6" edge="1">
          <mxGeometry width="50" height="50" relative="1" as="geometry">
            <mxPoint x="112.5" y="120" as="sourcePoint" />
            <mxPoint x="162.5" y="70" as="targetPoint" />
          </mxGeometry>
        </mxCell>
        <mxCell id="m_n6-F-YFGLFjy7Y0JU2-9" value="" style="endArrow=none;html=1;rounded=0;fontSize=9;" parent="1" source="m_n6-F-YFGLFjy7Y0JU2-4" target="m_n6-F-YFGLFjy7Y0JU2-5" edge="1">
          <mxGeometry width="50" height="50" relative="1" as="geometry">
            <mxPoint x="112.5" y="120" as="sourcePoint" />
            <mxPoint x="162.5" y="70" as="targetPoint" />
          </mxGeometry>
        </mxCell>
        <mxCell id="qigjusSWMFG9rdPJxevz-1" value="" style="endArrow=none;dashed=1;html=1;rounded=0;fontSize=9;" parent="1" source="oWM7RPTnSrJb3YP9Nrb4-12" target="oWM7RPTnSrJb3YP9Nrb4-11" edge="1">
          <mxGeometry width="50" height="50" relative="1" as="geometry">
            <mxPoint x="70" y="100" as="sourcePoint" />
            <mxPoint x="120" y="50" as="targetPoint" />
          </mxGeometry>
        </mxCell>
        <mxCell id="ShThiTPjBM2Tm-KsTzZ0-1" value="&lt;p style=&quot;margin: 6px 0px 0px; text-align: center; font-size: 9px;&quot;&gt;&lt;b style=&quot;font-size: 9px;&quot;&gt;Monitor connector&lt;/b&gt;&lt;/p&gt;&lt;hr style=&quot;font-size: 9px;&quot;&gt;&lt;p style=&quot;margin: 0px 0px 0px 8px; font-size: 9px;&quot;&gt;&lt;b style=&quot;font-size: 9px;&quot;&gt;Connect DT output with&amp;nbsp;&lt;/b&gt;&lt;/p&gt;&lt;p style=&quot;margin: 0px 0px 0px 8px; font-size: 9px;&quot;&gt;&lt;b style=&quot;font-size: 9px;&quot;&gt;monitor&lt;/b&gt;&lt;/p&gt;" style="align=left;overflow=fill;html=1;dropTarget=0;fontSize=9;" vertex="1" parent="1">
          <mxGeometry x="501" y="-18.5" width="160" height="57" as="geometry" />
        </mxCell>
        <mxCell id="ShThiTPjBM2Tm-KsTzZ0-2" value="" style="shape=component;jettyWidth=8;jettyHeight=4;fontSize=9;" vertex="1" parent="ShThiTPjBM2Tm-KsTzZ0-1">
          <mxGeometry x="1" width="20" height="20" relative="1" as="geometry">
            <mxPoint x="-24" y="4" as="offset" />
          </mxGeometry>
        </mxCell>
        <mxCell id="ShThiTPjBM2Tm-KsTzZ0-4" style="rounded=0;orthogonalLoop=1;jettySize=auto;html=1;exitX=0.5;exitY=1;exitDx=0;exitDy=0;entryX=1;entryY=0.5;entryDx=0;entryDy=0;entryPerimeter=0;endArrow=none;endFill=0;fontSize=9;" edge="1" parent="1" source="ShThiTPjBM2Tm-KsTzZ0-1" target="oWM7RPTnSrJb3YP9Nrb4-21">
          <mxGeometry relative="1" as="geometry" />
        </mxCell>
        <mxCell id="ShThiTPjBM2Tm-KsTzZ0-5" value="&lt;p style=&quot;margin: 6px 0px 0px; text-align: center; font-size: 9px;&quot;&gt;&lt;b&gt;NuRV service&lt;/b&gt;&lt;/p&gt;&lt;hr style=&quot;font-size: 9px;&quot;&gt;&lt;p style=&quot;margin: 0px 0px 0px 8px; font-size: 9px;&quot;&gt;&lt;b&gt;Monitor safe_operation.smv&lt;/b&gt;&lt;/p&gt;" style="align=left;overflow=fill;html=1;dropTarget=0;fontSize=9;" vertex="1" parent="1">
          <mxGeometry x="711" y="23" width="160" height="57" as="geometry" />
        </mxCell>
        <mxCell id="ShThiTPjBM2Tm-KsTzZ0-6" value="" style="shape=component;jettyWidth=8;jettyHeight=4;fontSize=9;" vertex="1" parent="ShThiTPjBM2Tm-KsTzZ0-5">
          <mxGeometry x="1" width="20" height="20" relative="1" as="geometry">
            <mxPoint x="-24" y="4" as="offset" />
          </mxGeometry>
        </mxCell>
        <mxCell id="ShThiTPjBM2Tm-KsTzZ0-7" value="&lt;p style=&quot;margin: 6px 0px 0px; text-align: center; font-size: 9px;&quot;&gt;&lt;b&gt;omniNames&lt;/b&gt;&lt;/p&gt;&lt;hr style=&quot;font-size: 9px;&quot;&gt;&lt;p style=&quot;margin: 0px 0px 0px 8px; font-size: 9px;&quot;&gt;&lt;b&gt;CORBA naming service&lt;/b&gt;&lt;/p&gt;" style="align=left;overflow=fill;html=1;dropTarget=0;fontSize=9;" vertex="1" parent="1">
          <mxGeometry x="709" y="-71" width="160" height="57" as="geometry" />
        </mxCell>
        <mxCell id="ShThiTPjBM2Tm-KsTzZ0-8" value="" style="shape=component;jettyWidth=8;jettyHeight=4;fontSize=9;" vertex="1" parent="ShThiTPjBM2Tm-KsTzZ0-7">
          <mxGeometry x="1" width="20" height="20" relative="1" as="geometry">
            <mxPoint x="-24" y="4" as="offset" />
          </mxGeometry>
        </mxCell>
        <mxCell id="ShThiTPjBM2Tm-KsTzZ0-15" style="rounded=0;orthogonalLoop=1;jettySize=auto;html=1;exitX=1;exitY=0.5;exitDx=0;exitDy=0;exitPerimeter=0;endArrow=none;endFill=0;entryX=0.495;entryY=-0.026;entryDx=0;entryDy=0;entryPerimeter=0;" edge="1" parent="1" source="ShThiTPjBM2Tm-KsTzZ0-12" target="ShThiTPjBM2Tm-KsTzZ0-5">
          <mxGeometry relative="1" as="geometry">
            <mxPoint x="801" y="30" as="targetPoint" />
          </mxGeometry>
        </mxCell>
        <mxCell id="ShThiTPjBM2Tm-KsTzZ0-16" style="rounded=0;orthogonalLoop=1;jettySize=auto;html=1;exitX=0;exitY=0.5;exitDx=0;exitDy=0;exitPerimeter=0;entryX=0.504;entryY=1.033;entryDx=0;entryDy=0;endArrow=none;endFill=0;entryPerimeter=0;" edge="1" parent="1" source="ShThiTPjBM2Tm-KsTzZ0-12" target="ShThiTPjBM2Tm-KsTzZ0-7">
          <mxGeometry relative="1" as="geometry" />
        </mxCell>
        <mxCell id="ShThiTPjBM2Tm-KsTzZ0-12" value="" style="shape=providedRequiredInterface;html=1;verticalLabelPosition=bottom;sketch=0;rotation=-92.4;fontSize=9;direction=west;" vertex="1" parent="1">
          <mxGeometry x="780" y="-6" width="20" height="20" as="geometry" />
        </mxCell>
        <mxCell id="ShThiTPjBM2Tm-KsTzZ0-17" style="rounded=0;orthogonalLoop=1;jettySize=auto;html=1;exitX=1;exitY=0.5;exitDx=0;exitDy=0;exitPerimeter=0;endArrow=none;endFill=0;" edge="1" parent="1" source="ShThiTPjBM2Tm-KsTzZ0-12">
          <mxGeometry relative="1" as="geometry">
            <mxPoint x="660" y="14" as="targetPoint" />
          </mxGeometry>
        </mxCell>
        <mxCell id="ShThiTPjBM2Tm-KsTzZ0-20" style="rounded=0;orthogonalLoop=1;jettySize=auto;html=1;exitX=0;exitY=0.5;exitDx=0;exitDy=0;exitPerimeter=0;entryX=-0.005;entryY=0.634;entryDx=0;entryDy=0;entryPerimeter=0;endArrow=none;endFill=0;" edge="1" parent="1" source="ShThiTPjBM2Tm-KsTzZ0-19" target="ShThiTPjBM2Tm-KsTzZ0-5">
          <mxGeometry relative="1" as="geometry" />
        </mxCell>
        <mxCell id="ShThiTPjBM2Tm-KsTzZ0-21" style="rounded=0;orthogonalLoop=1;jettySize=auto;html=1;exitX=1;exitY=0.5;exitDx=0;exitDy=0;exitPerimeter=0;entryX=0.5;entryY=1;entryDx=0;entryDy=0;endArrow=none;endFill=0;" edge="1" parent="1" source="ShThiTPjBM2Tm-KsTzZ0-19" target="ShThiTPjBM2Tm-KsTzZ0-1">
          <mxGeometry relative="1" as="geometry" />
        </mxCell>
        <mxCell id="ShThiTPjBM2Tm-KsTzZ0-19" value="" style="shape=providedRequiredInterface;html=1;verticalLabelPosition=bottom;sketch=0;rotation=-92.4;fontSize=9;direction=north;" vertex="1" parent="1">
          <mxGeometry x="650" y="50" width="20" height="20" as="geometry" />
        </mxCell>
      </root>
    </mxGraphModel>
  </diagram>
</mxfile>
